{
  "accessors": [
    {
      "bufferView": 2,
      "componentType": 5126,
      "count": 24288,
      "max": [
        5.648453712463379,
        2.8771467208862305,
        -8.181623458862305
      ],
      "min": [
        -5.521559715270996,
        -3.39920711517334,
        -18.268085479736328
      ],
      "type": "VEC3"
    },
    {
      "bufferView": 2,
      "byteOffset": 291456,
      "componentType": 5126,
      "count": 24288,
      "max": [
        0.9999352693557739,
        0.9999895691871643,
        0.9987572431564331
      ],
      "min": [
        -0.9998636245727539,
        -0.9937337040901184,
        -0.9993072152137756
      ],
      "type": "VEC3"
    },
    {
      "bufferView": 1,
      "componentType": 5126,
      "count": 24288,
      "max": [
        0.9999739527702332,
        0.9901755452156067
      ],
      "min": [
        1.32577688418678e-05,
        3.682821989059448e-05
      ],
      "type": "VEC2"
    },
    {
      "bufferView": 0,
      "componentType": 5125,
      "count": 132990,
      "type": "SCALAR"
    }
  ],
  "asset": {
    "extras": {
      "author": "sv.stats (https://sketchfab.com/sv.stats)",
      "license": "CC-BY-4.0 (http://creativecommons.org/licenses/by/4.0/)",
      "source": "https://sketchfab.com/3d-models/poof-2714de3f0635405e98d5457fcd3aa17b",
      "title": "Poof"
    },
    "generator": "Sketchfab-15.18.0",
    "version": "2.0"
  },
  "bufferViews": [
    {
      "buffer": 0,
      "byteLength": 531960,
      "name": "floatBufferViews",
      "target": 34963
    },
    {
      "buffer": 0,
      "byteLength": 194304,
      "byteOffset": 531960,
      "byteStride": 8,
      "name": "floatBufferViews",
      "target": 34962
    },
    {
      "buffer": 0,
      "byteLength": 582912,
      "byteOffset": 726264,
      "byteStride": 12,
      "name": "floatBufferViews",
      "target": 34962
    }
  ],
  "buffers": [
    {
      "byteLength": 1309176,
      "uri": "scene.bin"
    }
  ],
  "extensionsUsed": [
    "KHR_materials_unlit"
  ],
  "images": [
    {
      "uri": "textures/material0_baseColor.jpeg"
    }
  ],
  "materials": [
    {
      "doubleSided": true,
      "extensions": {
        "KHR_materials_unlit": {}
      },
      "name": "material0",
      "pbrMetallicRoughness": {
        "baseColorTexture": {
          "index": 0
        },
        "metallicFactor": 0.0
      }
    }
  ],
  "meshes": [
    {
      "name": "Model_material0_0",
      "primitives": [
        {
          "attributes": {
            "NORMAL": 1,
            "POSITION": 0,
            "TEXCOORD_0": 2
          },
          "indices": 3,
          "material": 0,
          "mode": 4
        }
      ]
    }
  ],
  "nodes": [
    {
      "children": [
        1
      ],
      "matrix": [
        0.6767436861991882,
        -0.09699402749538405,
        -0.7298014163970947,
        0.0,
        0.24998904764652252,
        -0.9021119475364686,
        0.35170936584472634,
        0.0,
        -0.6924763321876526,
        -0.42045944929122914,
        -0.5862511396408082,
        0.0,
        0.0,
        0.0,
        0.0,
        1.0
      ],
      "name": "Sketchfab_model"
    },
    {
      "children": [
        2
      ],
      "matrix": [
        1.0,
        0.0,
        0.0,
        0.0,
        0.0,
        -1.0,
        0.0,
        0.0,
        0.0,
        0.0,
        -1.0,
        0.0,
        0.0,
        0.0,
        0.0,
        1.0
      ],
      "name": "poof.fbx"
    },
    {
      "children": [
        3
      ],
      "name": "RootNode"
    },
    {
      "children": [
        4
      ],
      "name": "Model"
    },
    {
      "mesh": 0,
      "name": "Model_material0_0"
    }
  ],
  "samplers": [
    {
      "magFilter": 9729,
      "minFilter": 9987,
      "wrapS": 10497,
      "wrapT": 10497
    }
  ],
  "scene": 0,
  "scenes": [
    {
      "name": "Sketchfab_Scene",
      "nodes": [
        0
      ]
    }
  ],
  "textures": [
    {
      "sampler": 0,
      "source": 0
    }
  ]
}
